<?xml version="1.0" encoding="UTF-8"?>
<svg width="475px" height="474px" viewBox="0 0 475 474" version="1.1" xmlns="http://www.w3.org/2000/svg" xmlns:xlink="http://www.w3.org/1999/xlink">
    <title>next-js_1</title>
    <g id="页面-1" stroke="none" stroke-width="1" fill="none" fill-rule="evenodd">
        <g id="next-js_1" transform="translate(0.950085, 0.929516)" fill="#000000" fill-rule="nonzero">
            <path d="M341.049915,441.1 C339.149915,442.1 339.349915,442.4 341.149915,441.5 L342.649915,440.5 C342.649915,440.2 342.649915,440.2 341.049915,441.1 Z M344.849915,439 L345.049915,439.3 L346.149915,438.5 L344.849915,439 Z M347.349915,437.5 L347.549915,437.8 L348.649915,437 L347.349915,437.5 Z M349.849915,436 L349.949915,436.2 L351.049915,435.4 L349.849915,436 Z M353.249915,433.8 C351.549915,435 350.849915,435.7 352.449915,434.9 L355.049915,432.8 L353.249915,433.8 L353.249915,433.8 Z M213.895657,0.766435724 C146.631709,6.86454084 83.8027476,43.0835894 43.8878777,98.7980952 C21.8053456,129.288621 7.57643363,164.860901 2.12509724,202.0963 C0.277186596,215.12407 0,218.912287 0,236.559834 C0,254.20738 0.277186596,257.995597 2.12509724,270.930971 C14.9680762,359.815473 78.1666201,434.378668 163.909674,462.004932 C179.339728,466.901895 195.508946,470.32053 213.895657,472.445627 C221.010113,473.184791 251.962616,473.184791 259.169467,472.445627 C290.95353,468.934597 317.84063,461.080976 344.450543,447.498833 C348.515947,445.466131 349.255111,444.911758 348.793133,444.449781 C335.765363,427.264212 293.411838,365.174414 280.661255,347.89645 L242.871482,296.894116 L195.56497,226.765907 C179.765334,203.297442 163.965698,179.921372 147.796479,156.637698 C147.611688,156.637698 147.426897,187.774993 147.334502,225.841952 C147.149711,292.45913 147.149711,295.138601 146.318151,296.709325 C145.486591,298.557236 144.100658,300.12796 142.252748,300.959519 C140.774419,301.606288 139.480882,301.791079 132.458821,301.791079 L124.42041,301.791079 L122.295313,300.497542 C121.001775,299.665982 119.893029,298.46484 119.24626,297.078907 L118.229909,294.95381 L118.322305,202.281091 L118.507096,109.608372 L119.985424,107.760462 L123.404059,104.988596 C125.344365,104.064641 126.083529,103.879849 134.121941,103.879849 C143.546285,103.879849 145.024613,104.249432 147.519293,106.928902 C166.645168,135.479121 185.771043,164.121736 204.527336,192.856747 C235.295048,239.424095 277.24262,302.992221 297.846823,334.221911 L364.962352,435.856996 L366.810262,434.655854 C384.827391,422.644435 401.1814,408.323128 415.410312,391.969118 C445.254069,357.875167 464.564735,315.927596 471.124818,271.115762 C473.065124,258.087992 473.249915,254.299776 473.249915,236.652229 C473.249915,219.004682 472.972729,215.216466 471.124818,202.281091 C458.004652,113.304194 394.806108,38.7409994 309.15545,11.1147353 C293.171023,6.03298105 276.632223,2.61434637 260.001027,0.858831256 C255.473646,0.304458064 224.890725,-0.249915128 221.010113,0.119667 C219.901366,0.212062532 216.667523,0.489249128 213.895657,0.766435724 Z M271.744434,183.701014 C272.195335,185.251664 272.30806,218.531004 272.195335,293.200778 L271.969884,400.553489 L254.159301,371.568257 L236.235992,342.583025 L236.235992,264.69267 C236.235992,214.117615 236.461443,185.848068 236.686893,184.416698 C237.47597,181.196117 239.617749,178.57194 242.323154,176.902009 C244.577658,175.709201 245.366734,175.58992 254.384751,175.58992 C262.726417,175.470639 264.079119,175.58992 265.995448,176.782728 C268.700853,178.094817 270.729907,180.718994 271.744434,183.701014 Z" id="形状"></path>
        </g>
    </g>
</svg>